<svg width="512" height="512" viewBox="0 0 512 512" fill="none" xmlns="http://www.w3.org/2000/svg">
<rect width="512" height="512" fill="#FC784E"/>
<path d="M256.229 387.314C234.53 387.314 215.878 384.023 200.274 377.44C184.67 370.857 172.846 362.202 164.8 351.474C156.754 340.747 152.488 329.166 152 316.731C152 314.537 152.731 312.709 154.194 311.246C155.657 309.783 157.486 309.051 159.68 309.051H192.229C195.154 309.051 197.349 309.661 198.811 310.88C200.518 311.855 202.103 313.562 203.566 316C206.004 324.29 211.611 331.238 220.389 336.846C229.166 342.453 241.112 345.257 256.229 345.257C273.539 345.257 286.583 342.453 295.36 336.846C304.137 330.994 308.526 322.949 308.526 312.709C308.526 305.882 306.21 300.274 301.577 295.886C297.189 291.497 290.484 287.718 281.463 284.549C272.686 281.379 259.52 277.478 241.966 272.846C213.196 266.019 192.107 256.998 178.697 245.783C165.531 234.324 158.949 218.11 158.949 197.143C158.949 183.002 162.728 170.446 170.286 159.474C178.088 148.503 189.181 139.848 203.566 133.509C218.194 127.17 235.139 124 254.4 124C274.392 124 291.703 127.535 306.331 134.606C320.96 141.676 332.053 150.575 339.611 161.303C347.413 171.787 351.558 182.27 352.046 192.754C352.046 194.949 351.314 196.777 349.851 198.24C348.389 199.703 346.56 200.434 344.366 200.434H310.354C305.234 200.434 301.699 198.118 299.749 193.486C298.286 185.684 293.41 179.223 285.12 174.103C276.83 168.739 266.59 166.057 254.4 166.057C240.747 166.057 230.019 168.617 222.217 173.737C214.415 178.857 210.514 186.293 210.514 196.046C210.514 202.872 212.465 208.48 216.366 212.869C220.267 217.257 226.362 221.158 234.651 224.571C243.185 227.985 255.375 231.764 271.223 235.909C292.678 240.785 309.745 246.271 322.423 252.366C335.345 258.461 344.853 266.141 350.949 275.406C357.044 284.671 360.091 296.495 360.091 310.88C360.091 326.484 355.703 340.137 346.926 351.84C338.392 363.299 326.202 372.076 310.354 378.171C294.75 384.267 276.709 387.314 256.229 387.314Z" fill="white"/>
</svg>
