<?xml version="1.0" standalone="no"?>
<!DOCTYPE svg PUBLIC "-//W3C//DTD SVG 20010904//EN"
 "http://www.w3.org/TR/2001/REC-SVG-20010904/DTD/svg10.dtd">
<svg version="1.0" xmlns="http://www.w3.org/2000/svg"
 width="700.000000pt" height="700.000000pt" viewBox="0 0 700.000000 700.000000"
 preserveAspectRatio="xMidYMid meet">
<metadata>
Created by potrace 1.14, written by Peter Selinger 2001-2017
</metadata>
<g transform="translate(0.000000,700.000000) scale(0.100000,-0.100000)"
fill="#000000" stroke="none">
<path d="M0 3500 l0 -3500 3500 0 3500 0 0 3500 0 3500 -3500 0 -3500 0 0
-3500z m3847 1771 c278 -58 510 -177 684 -350 155 -154 264 -357 276 -517 6
-81 -3 -106 -48 -129 -25 -14 -71 -15 -304 -13 -335 4 -321 -2 -377 153 -44
123 -203 242 -388 292 -99 27 -357 24 -465 -6 -223 -60 -331 -172 -342 -355
-18 -289 160 -402 946 -601 686 -174 974 -375 1067 -745 29 -116 27 -396 -4
-503 -122 -426 -500 -696 -1077 -772 -157 -21 -472 -21 -625 0 -285 37 -528
126 -720 263 -91 65 -135 106 -199 187 -108 136 -177 301 -188 452 -6 81 -6
82 25 112 l30 31 275 0 c332 0 317 5 386 -135 125 -255 383 -370 785 -351 258
11 434 71 534 181 69 75 95 145 96 255 0 108 -25 169 -98 238 -114 108 -292
175 -866 327 -440 117 -696 238 -858 409 -151 159 -214 339 -214 606 0 123 4
160 25 241 103 394 461 665 981 744 144 22 532 14 663 -14z"/>
</g>
</svg>
